# xmcd
#
# Track frame offsets: 
#        150
#        14376
#        27176
#        38910
#        52031
#        64839
#        76958
#        88695
#        101263
#        119321
#        133527
#        145477
#        157693
#        168969
#        187154
#        203186
#
# Disc length: 2931 seconds
#
# Revision: 0
# Processed by: cddbd v1.5.1PL2 Copyright (c) Steve Scherf et al.
# Submitted via: ExactAudioCopy v0.95a5
#
DISCID=d30b7110
DTITLE=Countdown Singers - 50 Country Love Songs 2 of 3
DYEAR=1900
DGENRE=Country
TTITLE0=Let Your Love Flow
TTITLE1=Behind Closed Doors
TTITLE2=He Loves Me All The Way
TTITLE3=Please Help Me I'm Falling
TTITLE4=Good Hearted Woman
TTITLE5=Young Love
TTITLE6=A Very SpecialLove Song
TTITLE7=Bring Back Your Love to Me
TTITLE8=Lady
TTITLE9=If Loving You is Wrong (I don't want to be right)
TTITLE10=I Want You I Need You I Love You
TTITLE11=Love Song
TTITLE12=A Thing Called Love
TTITLE13=I Believe In You
TTITLE14=Red Neckin' Love Makin' Night
TTITLE15=Always on My Mind
EXTD=
EXTT0=
EXTT1=
EXTT2=
EXTT3=
EXTT4=
EXTT5=
EXTT6=
EXTT7=
EXTT8=
EXTT9=
EXTT10=
EXTT11=
EXTT12=
EXTT13=
EXTT14=
EXTT15=
PLAYORDER=
